<?xml version="1.0" standalone="no"?>
<!DOCTYPE svg PUBLIC "-//W3C//DTD SVG 20010904//EN"
 "http://www.w3.org/TR/2001/REC-SVG-20010904/DTD/svg10.dtd">
<svg version="1.0" xmlns="http://www.w3.org/2000/svg"
 width="122.000000pt" height="42.000000pt" viewBox="0 0 122.000000 42.000000"
 preserveAspectRatio="xMidYMid meet">

<g transform="translate(0.000000,42.000000) scale(0.100000,-0.100000)"
fill="#000000" stroke="none">
<path d="M270 209 c-27 -52 -19 -62 10 -13 l23 37 20 -39 c11 -22 22 -33 24
-27 5 15 -34 83 -48 83 -5 0 -18 -18 -29 -41z"/>
<path d="M386 243 c-14 -15 -5 -63 14 -73 14 -7 20 -7 20 0 0 5 -4 10 -10 10
-14 0 -12 28 2 32 10 4 8 9 -3 21 -9 9 -19 13 -23 10z"/>
<path d="M450 210 c0 -22 5 -40 10 -40 6 0 10 9 10 19 0 11 6 21 13 24 22 7
37 -5 37 -30 0 -13 4 -22 9 -18 13 7 5 46 -11 57 -7 4 -21 6 -30 4 -11 -2 -18
2 -18 10 0 8 -4 14 -10 14 -5 0 -10 -18 -10 -40z"/>
<path d="M579 214 c-17 -21 0 -49 31 -49 31 0 48 28 31 49 -8 9 -21 16 -31 16
-10 0 -23 -7 -31 -16z m56 -14 c8 -13 -20 -24 -41 -16 -20 8 -9 26 16 26 10 0
22 -5 25 -10z"/>
<path d="M697 223 c-13 -12 -7 -24 16 -33 21 -8 20 -9 -8 -10 -28 -1 -29 -2
-8 -12 24 -12 53 -5 53 13 0 6 -9 13 -20 16 -11 3 -20 10 -20 15 0 5 10 6 21
3 15 -5 19 -4 15 4 -8 12 -39 15 -49 4z"/>
<path d="M770 223 c0 -6 7 -16 16 -24 9 -7 14 -22 11 -36 -2 -13 -1 -23 2 -23
11 0 52 71 48 83 -2 7 -9 1 -16 -11 l-13 -24 -24 23 c-13 12 -24 18 -24 12z"/>
<path d="M887 223 c-13 -12 -7 -24 16 -33 21 -8 20 -9 -8 -10 -28 -1 -29 -2
-8 -12 24 -12 53 -5 53 13 0 6 -9 13 -20 16 -11 3 -20 10 -20 15 0 5 10 6 21
3 15 -5 19 -4 15 4 -8 12 -39 15 -49 4z"/>
</g>
</svg>
