<?xml version="1.0" standalone="no"?>
<!DOCTYPE svg PUBLIC "-//W3C//DTD SVG 20010904//EN"
 "http://www.w3.org/TR/2001/REC-SVG-20010904/DTD/svg10.dtd">
<svg version="1.0" xmlns="http://www.w3.org/2000/svg"
 width="64.000000pt" height="64.000000pt" viewBox="0 0 64.000000 64.000000"
 preserveAspectRatio="xMidYMid meet">

<g transform="translate(0.000000,64.000000) scale(0.100000,-0.100000)"
fill="#000000" stroke="none">
<path d="M141 323 c-13 -65 -13 -87 -1 -58 5 11 9 34 9 50 1 23 4 27 11 15 5
-8 10 -27 10 -42 0 -15 5 -30 12 -34 7 -5 9 -2 6 8 -4 9 -10 36 -13 62 -4 25
-11 48 -15 51 -4 2 -12 -21 -19 -52z"/>
<path d="M243 315 c0 -41 2 -53 4 -27 2 23 8 42 14 42 5 0 10 -19 10 -42 2
-33 3 -36 6 -14 6 35 -5 79 -17 71 -5 -3 -11 5 -13 17 -2 13 -4 -8 -4 -47z"/>
<path d="M200 317 c0 -31 4 -58 8 -61 9 -5 6 103 -3 112 -3 3 -5 -20 -5 -51z"/>
<path d="M311 336 c-17 -20 -10 -81 9 -81 18 0 26 56 12 80 -7 14 -10 15 -21
1z m19 -36 c0 -16 -4 -30 -10 -30 -5 0 -10 14 -10 30 0 17 5 30 10 30 6 0 10
-13 10 -30z"/>
<path d="M366 343 c-11 -11 -6 -36 11 -55 15 -17 15 -18 0 -18 -10 0 -17 -4
-17 -10 0 -5 6 -10 14 -10 21 0 28 31 11 50 -17 19 -20 34 -5 25 6 -3 10 -2
10 4 0 13 -15 22 -24 14z"/>
<path d="M466 343 c-11 -11 -6 -36 11 -55 15 -17 15 -18 0 -18 -10 0 -17 -4
-17 -10 0 -5 6 -10 14 -10 21 0 28 31 11 50 -17 19 -20 34 -5 25 6 -3 10 -2
10 4 0 13 -15 22 -24 14z"/>
<path d="M412 303 c5 -20 7 -49 4 -65 -3 -16 -2 -27 3 -24 5 3 12 27 16 52 3
26 9 54 11 63 2 9 -2 3 -10 -14 -13 -26 -15 -27 -16 -8 0 12 -4 24 -9 28 -6 3
-5 -10 1 -32z"/>
</g>
</svg>
